<svg width="50" height="50" viewBox="0 0 50 50" fill="none" xmlns="http://www.w3.org/2000/svg">
<rect width="50" height="50" rx="8" fill="#FAD4D4"/>
<path d="M21.08 35L19.016 29.696H12.224L10.184 35H8L14.696 17.792H16.64L23.312 35H21.08ZM16.448 22.592C16.4 22.464 16.32 22.232 16.208 21.896C16.096 21.56 15.984 21.216 15.872 20.864C15.776 20.496 15.696 20.216 15.632 20.024C15.552 20.344 15.464 20.672 15.368 21.008C15.288 21.328 15.2 21.624 15.104 21.896C15.024 22.168 14.952 22.4 14.888 22.592L12.944 27.776H18.368L16.448 22.592ZM32.6274 25.952H38.5554V34.352C37.6274 34.656 36.6914 34.88 35.7474 35.024C34.8034 35.168 33.7314 35.24 32.5314 35.24C30.7554 35.24 29.2594 34.888 28.0434 34.184C26.8274 33.464 25.8994 32.448 25.2594 31.136C24.6354 29.808 24.3234 28.24 24.3234 26.432C24.3234 24.64 24.6754 23.088 25.3794 21.776C26.0834 20.464 27.0914 19.448 28.4034 18.728C29.7314 17.992 31.3314 17.624 33.2034 17.624C34.1634 17.624 35.0674 17.712 35.9154 17.888C36.7794 18.064 37.5794 18.312 38.3154 18.632L37.4994 20.504C36.8914 20.232 36.2034 20 35.4354 19.808C34.6834 19.616 33.8994 19.52 33.0834 19.52C31.7234 19.52 30.5554 19.8 29.5794 20.36C28.6034 20.92 27.8594 21.72 27.3474 22.76C26.8354 23.784 26.5794 25.008 26.5794 26.432C26.5794 27.792 26.7954 29 27.2274 30.056C27.6754 31.096 28.3714 31.912 29.3154 32.504C30.2594 33.08 31.4994 33.368 33.0354 33.368C33.5474 33.368 33.9954 33.352 34.3794 33.32C34.7794 33.272 35.1394 33.216 35.4594 33.152C35.7954 33.088 36.1074 33.024 36.3954 32.96V27.872H32.6274V25.952Z" fill="#F47C7C"/>
</svg>
